<svg width="596" height="36" viewBox="0 0 596 36" fill="none" xmlns="http://www.w3.org/2000/svg">
<path d="M0 35.3864V0.477273H23.5227V6.5625H7.38068V14.8807H22.3125V20.9659H7.38068V29.3011H23.5909V35.3864H0Z" fill="black"/>
<path d="M56.6761 15.0511V20.8125H40.7557V15.0511H56.6761Z" fill="black"/>
<path d="M80.1264 35.3864H72.2173L84.2685 0.477273H93.7798L105.814 35.3864H97.9048L89.1605 8.45455H88.8878L80.1264 35.3864ZM79.6321 21.6648H98.3139V27.4261H79.6321V21.6648Z" fill="black"/>
<path d="M128.156 10.517C128.02 9.14205 127.435 8.07386 126.401 7.3125C125.366 6.55114 123.963 6.17045 122.19 6.17045C120.986 6.17045 119.969 6.34091 119.139 6.68182C118.31 7.01136 117.673 7.47159 117.23 8.0625C116.798 8.65341 116.582 9.32386 116.582 10.0739C116.56 10.6989 116.69 11.2443 116.974 11.7102C117.27 12.1761 117.673 12.5795 118.185 12.9205C118.696 13.25 119.287 13.5398 119.957 13.7898C120.628 14.0284 121.344 14.233 122.105 14.4034L125.241 15.1534C126.764 15.4943 128.162 15.9489 129.435 16.517C130.707 17.0852 131.81 17.7841 132.741 18.6136C133.673 19.4432 134.395 20.4205 134.906 21.5455C135.429 22.6705 135.696 23.9602 135.707 25.4148C135.696 27.5511 135.151 29.4034 134.071 30.9716C133.003 32.5284 131.457 33.7386 129.435 34.6023C127.423 35.4545 124.997 35.8807 122.156 35.8807C119.338 35.8807 116.884 35.4489 114.793 34.5852C112.713 33.7216 111.088 32.4432 109.918 30.75C108.759 29.0455 108.151 26.9375 108.094 24.4261H115.236C115.315 25.5966 115.651 26.5739 116.241 27.358C116.844 28.1307 117.645 28.7159 118.645 29.1136C119.656 29.5 120.798 29.6932 122.071 29.6932C123.321 29.6932 124.406 29.5114 125.327 29.1477C126.259 28.7841 126.98 28.2784 127.491 27.6307C128.003 26.983 128.259 26.2386 128.259 25.3977C128.259 24.6136 128.026 23.9545 127.56 23.4205C127.105 22.8864 126.435 22.4318 125.548 22.0568C124.673 21.6818 123.599 21.3409 122.327 21.0341L118.526 20.0795C115.582 19.3636 113.259 18.2443 111.554 16.7216C109.849 15.1989 109.003 13.1477 109.014 10.5682C109.003 8.45455 109.565 6.60795 110.702 5.02841C111.849 3.44886 113.423 2.21591 115.423 1.32955C117.423 0.443182 119.696 0 122.241 0C124.832 0 127.094 0.443182 129.026 1.32955C130.969 2.21591 132.48 3.44886 133.56 5.02841C134.639 6.60795 135.196 8.4375 135.23 10.517H128.156Z" fill="black"/>
<path d="M159.609 10.517C159.473 9.14205 158.888 8.07386 157.854 7.3125C156.82 6.55114 155.416 6.17045 153.643 6.17045C152.439 6.17045 151.422 6.34091 150.592 6.68182C149.763 7.01136 149.126 7.47159 148.683 8.0625C148.251 8.65341 148.036 9.32386 148.036 10.0739C148.013 10.6989 148.143 11.2443 148.428 11.7102C148.723 12.1761 149.126 12.5795 149.638 12.9205C150.149 13.25 150.74 13.5398 151.411 13.7898C152.081 14.0284 152.797 14.233 153.558 14.4034L156.695 15.1534C158.217 15.4943 159.615 15.9489 160.888 16.517C162.161 17.0852 163.263 17.7841 164.195 18.6136C165.126 19.4432 165.848 20.4205 166.359 21.5455C166.882 22.6705 167.149 23.9602 167.161 25.4148C167.149 27.5511 166.604 29.4034 165.524 30.9716C164.456 32.5284 162.911 33.7386 160.888 34.6023C158.876 35.4545 156.45 35.8807 153.609 35.8807C150.791 35.8807 148.337 35.4489 146.246 34.5852C144.166 33.7216 142.541 32.4432 141.371 30.75C140.212 29.0455 139.604 26.9375 139.547 24.4261H146.689C146.768 25.5966 147.104 26.5739 147.695 27.358C148.297 28.1307 149.098 28.7159 150.098 29.1136C151.109 29.5 152.251 29.6932 153.524 29.6932C154.774 29.6932 155.859 29.5114 156.78 29.1477C157.712 28.7841 158.433 28.2784 158.945 27.6307C159.456 26.983 159.712 26.2386 159.712 25.3977C159.712 24.6136 159.479 23.9545 159.013 23.4205C158.558 22.8864 157.888 22.4318 157.001 22.0568C156.126 21.6818 155.053 21.3409 153.78 21.0341L149.979 20.0795C147.036 19.3636 144.712 18.2443 143.007 16.7216C141.303 15.1989 140.456 13.1477 140.467 10.5682C140.456 8.45455 141.018 6.60795 142.155 5.02841C143.303 3.44886 144.876 2.21591 146.876 1.32955C148.876 0.443182 151.149 0 153.695 0C156.286 0 158.547 0.443182 160.479 1.32955C162.422 2.21591 163.933 3.44886 165.013 5.02841C166.092 6.60795 166.649 8.4375 166.683 10.517H159.609Z" fill="black"/>
<path d="M172.125 35.3864V0.477273H195.648V6.5625H179.506V14.8807H194.438V20.9659H179.506V29.3011H195.716V35.3864H172.125Z" fill="black"/>
<path d="M200.186 6.5625V0.477273H228.857V6.5625H218.169V35.3864H210.874V6.5625H200.186Z" fill="black"/>
<path d="M244.688 0.477273H253.79L263.403 23.9318H263.812L273.426 0.477273H282.528V35.3864H275.369V12.6648H275.08L266.045 35.2159H261.17L252.136 12.5795H251.847V35.3864H244.688V0.477273Z" fill="black"/>
<path d="M294.626 35.3864H286.717L298.768 0.477273H308.28L320.314 35.3864H312.405L303.661 8.45455H303.388L294.626 35.3864ZM294.132 21.6648H312.814V27.4261H294.132V21.6648Z" fill="black"/>
<path d="M353.715 0.477273V35.3864H347.339L332.152 13.4148H331.896V35.3864H324.516V0.477273H330.993L346.061 22.4318H346.368V0.477273H353.715Z" fill="black"/>
<path d="M365.83 35.3864H357.92L369.972 0.477273H379.483L391.517 35.3864H383.608L374.864 8.45455H374.591L365.83 35.3864ZM365.335 21.6648H384.017V27.4261H365.335V21.6648Z" fill="black"/>
<path d="M417.226 11.7614C416.987 10.9318 416.652 10.1989 416.22 9.5625C415.788 8.91477 415.26 8.36932 414.635 7.92614C414.021 7.47159 413.317 7.125 412.521 6.88636C411.737 6.64773 410.868 6.52841 409.913 6.52841C408.129 6.52841 406.561 6.97159 405.209 7.85795C403.868 8.74432 402.822 10.0341 402.072 11.7273C401.322 13.4091 400.947 15.4659 400.947 17.8977C400.947 20.3295 401.317 22.3977 402.055 24.1023C402.794 25.8068 403.84 27.108 405.192 28.0057C406.544 28.892 408.141 29.3352 409.982 29.3352C411.652 29.3352 413.078 29.0398 414.26 28.4489C415.453 27.8466 416.362 27 416.987 25.9091C417.624 24.8182 417.942 23.5284 417.942 22.0398L419.442 22.2614H410.442V16.7045H425.05V21.1023C425.05 24.1705 424.402 26.8068 423.107 29.0114C421.811 31.2045 420.027 32.8977 417.754 34.0909C415.482 35.2727 412.879 35.8636 409.947 35.8636C406.675 35.8636 403.8 35.142 401.322 33.6989C398.845 32.2443 396.913 30.1818 395.527 27.5114C394.152 24.8295 393.464 21.6477 393.464 17.9659C393.464 15.1364 393.874 12.6136 394.692 10.3977C395.521 8.17045 396.68 6.28409 398.169 4.73864C399.658 3.19318 401.391 2.01705 403.368 1.21023C405.345 0.403409 407.487 0 409.794 0C411.771 0 413.612 0.289773 415.317 0.869319C417.021 1.4375 418.533 2.24432 419.851 3.28977C421.18 4.33523 422.266 5.57955 423.107 7.02273C423.947 8.45455 424.487 10.0341 424.726 11.7614H417.226Z" fill="black"/>
<path d="M430.594 35.3864V0.477273H454.116V6.5625H437.974V14.8807H452.906V20.9659H437.974V29.3011H454.185V35.3864H430.594Z" fill="black"/>
<path d="M459.984 0.477273H469.087L478.7 23.9318H479.109L488.723 0.477273H497.825V35.3864H490.666V12.6648H490.376L481.342 35.2159H476.467L467.433 12.5795H467.143V35.3864H459.984V0.477273Z" fill="black"/>
<path d="M503.906 35.3864V0.477273H527.429V6.5625H511.287V14.8807H526.219V20.9659H511.287V29.3011H527.497V35.3864H503.906Z" fill="black"/>
<path d="M562.496 0.477273V35.3864H556.121L540.933 13.4148H540.678V35.3864H533.297V0.477273H539.774L554.842 22.4318H555.149V0.477273H562.496Z" fill="black"/>
<path d="M567.264 6.5625V0.477273H595.935V6.5625H585.247V35.3864H577.952V6.5625H567.264Z" fill="black"/>
</svg>
