<svg width="463" height="671" viewBox="0 0 463 671" fill="none" xmlns="http://www.w3.org/2000/svg">
<g filter="url(#filter0_d_332_147)">
<path d="M4 40C4 17.9086 21.9086 0 44 0H419C441.091 0 459 17.9086 459 40V623C459 645.091 441.091 663 419 663H44C21.9086 663 4 645.091 4 623V40Z" fill="white"/>
<path d="M4.5 40C4.5 18.1848 22.1848 0.5 44 0.5H419C440.815 0.5 458.5 18.1848 458.5 40V623C458.5 644.815 440.815 662.5 419 662.5H44C22.1847 662.5 4.5 644.815 4.5 623V40Z" stroke="black"/>
</g>
<defs>
<filter id="filter0_d_332_147" x="0" y="0" width="463" height="671" filterUnits="userSpaceOnUse" color-interpolation-filters="sRGB">
<feFlood flood-opacity="0" result="BackgroundImageFix"/>
<feColorMatrix in="SourceAlpha" type="matrix" values="0 0 0 0 0 0 0 0 0 0 0 0 0 0 0 0 0 0 127 0" result="hardAlpha"/>
<feOffset dy="4"/>
<feGaussianBlur stdDeviation="2"/>
<feComposite in2="hardAlpha" operator="out"/>
<feColorMatrix type="matrix" values="0 0 0 0 0 0 0 0 0 0 0 0 0 0 0 0 0 0 0.25 0"/>
<feBlend mode="normal" in2="BackgroundImageFix" result="effect1_dropShadow_332_147"/>
<feBlend mode="normal" in="SourceGraphic" in2="effect1_dropShadow_332_147" result="shape"/>
</filter>
</defs>
</svg>
